<svg version="1.1" id="Layer_1" xmlns="http://www.w3.org/2000/svg" xmlns:xlink="http://www.w3.org/1999/xlink" x="0px" y="0px"
	 width="100%" viewBox="0 0 1176 1025" enable-background="new 0 0 1176 1025" xml:space="preserve">
<path fill="currentColor" opacity="1.000000" stroke="none"
	d="
M145.972122,626.011841 
	C147.617218,613.690674 149.390045,601.840088 150.935638,589.959961 
	C152.111023,580.925415 152.874954,571.837402 154.048309,562.802551 
	C155.150940,554.312256 156.658157,545.874817 157.784851,537.387268 
	C158.684464,530.610168 159.162994,523.777588 160.038345,516.996765 
	C161.238556,507.699249 162.720139,498.438141 163.926926,489.141418 
	C165.056000,480.443298 165.888733,471.706635 167.023880,463.009369 
	C168.531464,451.458649 170.278625,439.939148 171.780945,428.387787 
	C172.663559,421.601166 173.173584,414.766510 174.025787,407.975372 
	C175.175751,398.811188 176.540955,389.674164 177.725967,380.514130 
	C178.871384,371.660339 179.824326,362.781281 181.008347,353.932922 
	C182.555008,342.374481 184.336594,330.847107 185.840088,319.283356 
	C186.723541,312.488403 187.181580,305.639221 187.978241,298.831665 
	C189.019135,289.937347 190.163986,281.054504 191.341415,272.176971 
	C192.512161,263.349670 193.795517,254.537338 194.999054,245.714279 
	C196.663605,233.511810 198.361099,221.313309 199.922913,209.097565 
	C200.749435,202.632980 201.198044,196.119934 202.033173,189.656647 
	C203.214447,180.514236 204.672562,171.407684 205.864716,162.266541 
	C206.705826,155.817032 207.206635,149.323425 208.029739,142.871231 
	C209.258408,133.239944 210.727951,123.639076 211.925461,114.004189 
	C213.048111,104.971596 213.819901,95.894722 214.987534,86.868568 
	C216.086197,78.375580 217.606827,69.937653 218.741486,61.448719 
	C219.646545,54.677605 220.604706,47.882397 220.915939,41.069405 
	C221.630432,25.429289 229.247498,17.422779 243.530075,11.111557 
	C246.937744,9.605763 251.026260,9.163264 254.817932,9.091256 
	C267.478485,8.850817 280.154968,9.287503 292.808868,8.911373 
	C303.278351,8.600175 309.772369,14.096917 316.128571,21.576975 
	C322.988312,29.649607 322.457886,39.251945 323.966888,48.494263 
	C325.479797,57.760662 326.609436,67.091751 327.795410,76.408691 
	C328.637482,83.023933 329.201019,89.674812 330.055878,96.288200 
	C331.279968,105.758278 332.717834,115.200676 333.949677,124.669823 
	C335.059021,133.197540 335.945648,141.754242 337.055115,150.281967 
	C338.287811,159.756912 339.741943,169.203262 340.950256,178.681107 
	C342.059753,187.383865 342.881531,196.123337 343.992584,204.825867 
	C345.223816,214.469482 346.736206,224.077393 347.946716,233.723389 
	C349.081116,242.762543 349.843872,251.848938 351.018372,260.882294 
	C352.525879,272.476898 354.356995,284.029236 355.899933,295.619598 
	C356.738159,301.916321 357.156006,308.268494 357.963226,314.570038 
	C359.157104,323.889954 360.587402,333.179413 361.807678,342.496155 
	C362.947235,351.196228 363.895813,359.921265 365.016602,368.623932 
	C366.259308,378.273346 367.680237,387.900177 368.878418,397.554840 
	C370.020264,406.755310 370.880310,415.990936 372.039581,425.189026 
	C373.132080,433.857361 374.515625,442.488708 375.653351,451.151794 
	C376.520172,457.751801 377.092468,464.391022 377.989838,470.986389 
	C379.931549,485.257782 382.096252,499.499268 383.977356,513.778320 
	C385.166504,522.805115 385.904449,531.890686 387.034363,540.926147 
	C388.239838,550.565735 389.766510,560.165039 390.971191,569.804688 
	C392.099762,578.835266 392.836823,587.915771 394.024811,596.937561 
	C395.504974,608.177917 397.349121,619.370056 398.882446,630.603943 
	C399.740326,636.889587 400.190430,643.229980 400.996674,649.523682 
	C402.253876,659.337952 403.752869,669.121643 404.971252,678.940430 
	C406.093628,687.985657 406.823853,697.080750 408.011505,706.116394 
	C409.534454,717.703369 411.475311,729.235657 412.984955,740.824158 
	C414.186096,750.044800 414.869598,759.332275 416.036743,768.557983 
	C417.563751,780.628174 419.417908,792.656799 420.984314,804.722351 
	C422.115173,813.432922 422.885620,822.190552 424.037903,830.897949 
	C425.227783,839.889160 426.818848,848.827576 427.981232,857.821899 
	C428.858765,864.612061 429.241272,871.464722 430.018433,878.269714 
	C430.975525,886.649902 432.081238,895.013672 433.183655,903.376526 
	C434.072449,910.118713 435.057587,916.848083 435.989594,923.584595 
	C437.653656,935.612305 439.606079,947.610168 440.867340,959.680054 
	C441.740143,968.032898 442.099213,976.498291 441.864838,984.890381 
	C441.656586,992.346863 430.343750,1001.972107 422.704895,1001.981323 
	C417.546906,1001.987610 412.273315,1002.467224 407.259033,1001.572205 
	C400.611115,1000.385498 392.516022,988.519897 391.902679,981.675842 
	C391.064392,972.322083 389.452179,963.039673 388.272217,953.713928 
	C387.436371,947.107910 386.868378,940.467407 385.998566,933.866333 
	C384.793274,924.719055 383.320435,915.606812 382.141174,906.456421 
	C380.978180,897.432495 380.130371,888.368042 378.975006,879.342957 
	C377.781189,870.017761 376.335693,860.725037 375.092346,851.405762 
	C374.298248,845.453918 373.731598,839.471863 372.955536,833.517395 
	C371.740082,824.191589 370.381104,814.884460 369.183990,805.556396 
	C368.354370,799.091858 367.772583,792.595520 366.941010,786.131226 
	C365.700073,776.484436 364.247681,766.864380 363.051270,757.212341 
	C361.931183,748.176331 361.170013,739.094910 359.992218,730.067200 
	C358.479797,718.474792 356.646332,706.924622 355.075043,695.339417 
	C354.245178,689.221008 353.761993,683.056030 352.973175,676.931335 
	C351.749146,667.427246 350.335632,657.947510 349.121948,648.442200 
	C348.298309,641.991943 347.791931,635.500671 346.941986,629.054321 
	C345.714752,619.746399 344.200562,610.475891 343.002777,601.164490 
	C341.863098,592.304504 341.090179,583.397156 339.939728,574.538696 
	C338.753021,565.401306 337.148346,556.317261 336.015320,547.174072 
	C334.834991,537.648926 333.807373,528.095093 333.104614,518.525085 
	C332.808929,514.498657 331.739716,512.860840 327.306885,512.885376 
	C316.733978,512.944031 306.153198,512.458130 295.583496,512.007080 
	C281.583221,511.409698 267.589874,510.647766 253.594711,509.934326 
	C241.278442,509.306458 228.960236,508.706390 216.650620,507.965302 
	C213.237762,507.759857 212.298553,508.939056 211.889328,512.427368 
	C210.211334,526.731445 207.919037,540.962158 206.064941,555.247437 
	C204.558777,566.851807 203.462341,578.509094 201.987747,590.117920 
	C200.477707,602.005981 198.642563,613.852478 197.112518,625.738159 
	C195.950439,634.765503 195.149063,643.839172 193.993835,652.867493 
	C192.801178,662.187988 191.297409,671.468506 190.073425,680.785400 
	C188.949554,689.340149 188.084686,697.928711 186.983948,706.486694 
	C185.432297,718.550293 183.717743,730.592896 182.169296,742.656921 
	C181.031281,751.523376 180.115067,760.418335 178.977493,769.284851 
	C177.759537,778.778015 176.345581,788.245972 175.114655,797.737549 
	C174.006836,806.279907 173.082306,814.845947 171.984680,823.389709 
	C170.434174,835.458313 168.758026,847.510925 167.215988,859.580566 
	C166.390244,866.043701 165.807175,872.537842 164.981644,879.000977 
	C163.810883,888.167175 162.476883,897.312378 161.288071,906.476379 
	C160.139786,915.327881 159.135422,924.197998 157.979477,933.048462 
	C156.721954,942.676941 155.324173,952.286987 154.062164,961.914917 
	C153.301239,967.720276 152.334747,973.528564 152.070084,979.363098 
	C151.464966,992.702942 141.918701,1001.998596 128.361374,1001.999756 
	C126.861557,1001.999878 125.361740,1001.999451 123.861923,1001.999390 
	C111.117332,1001.998413 101.626366,992.750122 102.123375,979.858398 
	C102.499237,970.109009 103.981483,960.401672 104.989906,950.677551 
	C105.962410,941.299744 106.814552,931.906372 107.985535,922.553162 
	C109.131569,913.399353 110.722801,904.301758 111.916145,895.153137 
	C113.071854,886.293030 113.846176,877.382935 115.015900,868.524902 
	C116.180023,859.709351 117.757339,850.948181 118.908890,842.131165 
	C119.796722,835.333374 120.185982,828.471497 121.013191,821.664429 
	C122.107468,812.659607 123.442207,803.684265 124.619041,794.689148 
	C125.777794,785.832214 126.835754,776.962097 127.996948,768.105469 
	C129.540085,756.335693 131.202026,744.581177 132.692780,732.804932 
	C133.573044,725.851074 134.156235,718.859924 134.990326,711.899719 
	C136.013382,703.362671 137.154510,694.839722 138.252991,686.311768 
	C139.164902,679.232056 140.085175,672.153320 141.008667,665.075073 
	C142.142059,656.388123 143.288879,647.702881 144.417419,639.015320 
	C144.960419,634.835449 145.474792,630.651733 145.972122,626.011841 
M299.941132,263.393250 
	C299.292450,257.386658 298.652161,251.379135 297.992798,245.373718 
	C297.336700,239.397964 296.809540,233.403229 295.962524,227.454315 
	C294.389862,216.408859 292.398621,205.419434 290.996918,194.354065 
	C289.118591,179.526520 287.845001,164.621750 285.924866,149.800262 
	C283.826263,133.601120 281.193298,117.471924 278.967804,101.288231 
	C277.156403,88.115646 275.655548,74.900337 273.842010,61.728077 
	C273.683228,60.574886 272.222168,59.601002 271.365997,58.543831 
	C270.901550,58.820717 270.437103,59.097607 269.972656,59.374493 
	C252.963150,192.159103 235.953644,324.943726 218.975845,457.480774 
	C226.237778,458.021851 232.783661,458.642120 239.344162,458.971558 
	C254.319550,459.723541 269.298767,460.423584 284.282745,460.972473 
	C296.682495,461.426697 309.091827,461.615692 321.495270,461.977814 
	C322.828369,462.016754 324.150604,462.427124 325.712799,462.707336 
	C324.433929,453.195709 323.179718,443.918793 321.941223,434.639740 
	C320.998596,427.577301 320.048401,420.515686 319.151489,413.447357 
	C318.068970,404.916046 316.985718,396.384186 316.003632,387.840973 
	C315.239563,381.194244 314.776123,374.510895 313.919739,367.877258 
	C312.386322,355.999390 310.624817,344.151123 309.023926,332.281677 
	C308.177612,326.006989 307.511475,319.708191 306.687683,313.430298 
	C305.486176,304.273773 304.228363,295.124603 302.971008,285.975525 
	C301.978180,278.751007 300.949982,271.531403 299.941132,263.393250 
z"/>
<path fill="currentColor" opacity="1.000000" stroke="none"
	d="
M504.999420,780.000000 
	C505.002075,535.000488 504.952698,290.500916 505.207397,46.001694 
	C505.217102,36.679195 508.427795,27.492823 517.347717,21.940756 
	C521.193604,19.546902 525.135864,17.932856 529.911560,17.938540 
	C612.077820,18.036352 694.244202,18.001587 776.410583,18.004953 
	C786.119202,18.005352 794.121765,24.707132 798.278503,33.462284 
	C800.908691,39.002064 800.664429,44.504749 799.603149,49.329628 
	C798.035706,56.455406 793.167908,62.501900 786.167969,65.728249 
	C783.088867,67.147415 779.418579,67.901817 776.014893,67.907547 
	C704.181946,68.028404 632.348694,67.999092 560.515503,67.999176 
	C558.869568,67.999184 557.223694,67.999176 555.285767,67.999176 
	C555.285767,198.308029 555.285767,328.374878 555.285767,458.999878 
	C557.026550,458.999878 558.795776,458.999878 560.565063,458.999878 
	C632.731506,459.000305 704.898010,458.998596 777.064453,459.003540 
	C787.198792,459.004242 794.741394,465.214081 799.266418,474.624908 
	C801.918457,480.140503 801.725525,485.687042 800.592834,490.475677 
	C798.919800,497.548492 794.089050,503.638733 787.031677,506.796387 
	C783.933472,508.182648 780.269775,508.903961 776.861206,508.909485 
	C704.694885,509.026886 632.528320,508.998993 560.361816,508.999451 
	C558.731262,508.999451 557.100647,508.999390 554.998108,508.999390 
	C554.998108,511.118011 554.998169,512.897644 554.998169,514.677246 
	C554.999512,669.175232 554.989929,823.673157 555.027161,978.171143 
	C555.029602,988.305481 549.617981,995.498718 541.404480,999.580750 
	C529.057007,1005.717102 515.151733,1002.194397 507.570007,989.568420 
	C505.862274,986.724548 505.107117,982.887756 505.100006,979.505554 
	C504.961365,913.170593 504.998383,846.835266 504.999420,780.000000 
z"/>
<path fill="currentColor" opacity="1.000000" stroke="none"
	d="
M1024.998779,681.000000 
	C1024.986328,578.037598 1024.963135,475.575195 1024.983154,373.112793 
	C1024.984741,365.253204 1033.097778,354.744690 1042.912842,353.354767 
	C1051.454956,352.145081 1060.347168,351.759399 1067.453003,358.741577 
	C1071.920532,363.131500 1075.012573,367.970825 1075.012207,374.466858 
	C1074.999634,577.059998 1075.025146,779.653198 1074.929810,982.246277 
	C1074.925903,990.518860 1066.101807,1000.821777 1056.426758,1001.852234 
	C1049.099976,1002.632568 1041.453979,1003.031433 1034.901123,997.621826 
	C1028.871948,992.644470 1024.893311,987.283936 1024.906128,978.887695 
	C1025.057251,879.758606 1025.000732,780.629272 1024.998779,681.000000 
z"/>
<path fill="currentColor" opacity="1.000000" stroke="none"
	d="
M869.167725,540.275269 
	C870.202087,534.495911 869.901428,528.377747 874.662415,523.708435 
	C879.413330,519.048950 884.232056,515.182312 891.409973,514.909241 
	C899.421143,514.604492 906.449951,515.946289 912.455200,521.863831 
	C919.018860,528.331726 919.928345,536.443359 919.939209,544.770447 
	C920.010254,599.320435 919.904236,653.870667 919.902954,708.420776 
	C919.901794,760.809998 919.963928,813.199219 919.985535,865.588440 
	C920.000977,903.013550 920.041565,940.438660 919.968933,977.863647 
	C919.949036,988.135925 912.218262,998.467224 902.376221,1001.940002 
	C887.806580,1007.080994 871.383179,996.373230 869.971069,980.848633 
	C869.870422,979.741150 869.410828,978.666321 869.411804,976.862793 
	C869.804504,974.495911 869.989990,972.842529 869.990173,971.189148 
	C870.003479,829.466736 870.005737,687.744263 869.967834,546.021851 
	C869.967285,544.106262 869.445984,542.190796 869.167725,540.275269 
z"/>
<path fill="currentColor" opacity="1.000000" stroke="none"
	d="
M914.749268,483.817200 
	C904.630066,486.299347 894.722717,486.925690 884.892090,484.805328 
	C867.331543,481.017761 853.468140,471.361877 843.914185,456.276031 
	C838.402161,447.572296 834.624084,437.883362 835.012695,427.174988 
	C835.250916,420.609741 834.807068,413.876862 836.137146,407.526642 
	C838.278442,397.303772 843.268677,388.217377 850.221069,380.271606 
	C858.582092,370.715851 868.670410,363.339996 881.021240,360.837677 
	C889.630798,359.093414 898.865234,359.416138 907.705627,360.167694 
	C914.149658,360.715485 920.938599,362.451813 926.641968,365.437988 
	C941.089355,373.002258 951.565674,384.203644 957.256348,400.139709 
	C962.139648,413.814606 962.615845,427.358063 958.876160,440.878510 
	C954.763062,455.748779 945.761292,467.713898 932.513245,475.842010 
	C927.147278,479.134247 920.908569,481.004242 914.749268,483.817200 
M909.007507,427.451355 
	C911.527832,421.329010 909.190430,412.733337 904.197510,411.139069 
	C895.913330,408.493835 890.022217,410.671661 886.214539,417.732300 
	C883.437439,422.881836 886.004517,430.096069 892.152039,433.566223 
	C898.398438,437.092194 905.283264,434.833221 909.007507,427.451355 
z"/>
</svg>