<svg version="1.1" id="Layer_1" xmlns="http://www.w3.org/2000/svg" xmlns:xlink="http://www.w3.org/1999/xlink" x="0px" y="0px"
	 width="100%" viewBox="0 0 520 520" enable-background="new 0 0 520 520" xml:space="preserve">
<path fill="#33409F" opacity="1.000000" stroke="none"
	d="
M287.000000,521.000000 
	C269.979095,521.000000 252.958206,521.000000 235.528839,520.572144 
	C234.441910,519.776001 233.757019,519.075806 233.085983,519.088867 
	C221.839813,519.307312 210.932907,517.381409 200.245544,514.032043 
	C187.418671,510.012085 174.481339,506.298370 161.827118,501.791504 
	C154.560974,499.203613 147.582977,495.632446 140.794266,491.920532 
	C131.398529,486.783142 121.857643,481.714142 113.203384,475.472656 
	C104.397697,469.122009 97.128822,460.608032 88.215073,454.447693 
	C76.563591,446.395294 67.864639,435.675873 59.214386,424.994324 
	C50.497116,414.230042 43.081963,402.404572 35.230412,390.952118 
	C33.812794,388.884338 33.043625,386.372070 32.190731,383.796936 
	C41.242428,379.790070 47.778633,373.139984 54.157955,366.304108 
	C57.901020,362.293182 61.439533,358.081177 65.321518,354.211914 
	C76.487442,343.082581 90.396614,339.083496 105.766113,338.986969 
	C109.335281,338.964569 109.676224,340.408997 109.067619,343.683411 
	C107.983879,349.514069 106.952911,355.503754 107.140862,361.387268 
	C107.437096,370.660950 112.073112,377.758545 120.397072,382.241333 
	C131.447495,388.192444 143.190674,387.377716 154.896942,385.434143 
	C168.433899,383.186615 177.217468,373.788177 186.015335,364.247253 
	C191.723877,358.056580 197.788773,351.904205 204.675598,347.159363 
	C214.620743,340.307465 226.235794,338.412872 237.721970,339.195221 
	C237.107712,346.478790 236.078720,353.203674 236.086075,359.927368 
	C236.096115,369.097809 240.784698,376.084045 248.275528,381.091797 
	C263.756134,391.440887 291.892090,387.216278 303.955353,374.559967 
	C310.383270,367.816010 316.657562,360.920624 323.221252,354.312134 
	C334.332153,343.125336 348.252838,339.107239 363.624146,338.989136 
	C366.964478,338.963470 367.795349,340.031219 367.102081,343.546234 
	C365.955353,349.360626 364.971375,355.358276 365.134277,361.245026 
	C365.390930,370.517944 369.963226,377.661499 378.271301,382.173340 
	C386.808807,386.809814 395.743774,387.315125 405.333710,386.197998 
	C415.893616,384.967865 425.019257,381.441986 432.471527,373.985504 
	C439.055298,367.398041 445.143829,360.312408 451.782135,353.783386 
	C462.871521,342.876678 476.710419,339.023926 491.895538,338.999969 
	C494.989777,338.995087 495.757202,340.071045 495.158264,343.324005 
	C494.054321,349.319885 493.095886,355.458893 493.206848,361.517548 
	C493.270966,365.019775 495.542847,368.481628 496.748901,372.306396 
	C494.500610,376.983795 492.717072,381.573578 490.077545,385.602600 
	C480.825348,399.725342 471.948944,414.175781 461.615479,427.480957 
	C454.307922,436.889923 444.860687,444.633820 436.396332,453.148529 
	C427.709106,461.887421 417.566986,468.782410 407.751587,476.123383 
	C393.424408,486.838715 377.546570,494.641327 361.135864,501.370056 
	C351.773163,505.208954 342.034637,508.161377 332.385010,511.263000 
	C318.797974,515.630310 305.015594,519.063232 290.585876,519.092041 
	C289.389313,519.094421 288.195221,520.334778 287.000000,521.000000 
z"/>
<path fill="#3771C6" opacity="1.000000" stroke="none" 
	d="
M496.821045,371.961639 
	C495.542847,368.481628 493.270966,365.019775 493.206848,361.517548 
	C493.095886,355.458893 494.054321,349.319885 495.158264,343.324005 
	C495.757202,340.071045 494.989777,338.995087 491.895538,338.999969 
	C476.710419,339.023926 462.871521,342.876678 451.782135,353.783386 
	C445.143829,360.312408 439.055298,367.398041 432.471527,373.985504 
	C425.019257,381.441986 415.893616,384.967865 405.333710,386.197998 
	C395.743774,387.315125 386.808807,386.809814 378.271301,382.173340 
	C369.963226,377.661499 365.390930,370.517944 365.134277,361.245026 
	C364.971375,355.358276 365.955353,349.360626 367.102081,343.546234 
	C367.795349,340.031219 366.964478,338.963470 363.624146,338.989136 
	C348.252838,339.107239 334.332153,343.125336 323.221252,354.312134 
	C316.657562,360.920624 310.383270,367.816010 303.955353,374.559967 
	C291.892090,387.216278 263.756134,391.440887 248.275528,381.091797 
	C240.784698,376.084045 236.096115,369.097809 236.086075,359.927368 
	C236.078720,353.203674 237.107712,346.478790 237.721970,339.195221 
	C226.235794,338.412872 214.620743,340.307465 204.675598,347.159363 
	C197.788773,351.904205 191.723877,358.056580 186.015335,364.247253 
	C177.217468,373.788177 168.433899,383.186615 154.896942,385.434143 
	C143.190674,387.377716 131.447495,388.192444 120.397072,382.241333 
	C112.073112,377.758545 107.437096,370.660950 107.140862,361.387268 
	C106.952911,355.503754 107.983879,349.514069 109.067619,343.683411 
	C109.676224,340.408997 109.335281,338.964569 105.766113,338.986969 
	C90.396614,339.083496 76.487442,343.082581 65.321518,354.211914 
	C61.439533,358.081177 57.901020,362.293182 54.157955,366.304108 
	C47.778633,373.139984 41.242428,379.790070 31.853415,383.656067 
	C27.214882,374.831940 22.960960,365.952271 19.109261,356.901459 
	C16.929579,351.779602 15.346095,346.397705 13.609636,341.095093 
	C11.332817,334.142395 8.672825,327.262512 7.096264,320.147766 
	C5.479862,312.853241 5.074988,305.296234 3.864950,297.899078 
	C3.686103,296.805756 1.992692,295.960175 1.000004,295.000000 
	C1.000000,277.312439 1.000000,259.624878 1.444135,241.292068 
	C5.374075,240.756699 8.859248,240.895584 12.345792,240.971497 
	C28.292181,241.318741 42.410595,246.068146 53.558807,258.014160 
	C58.892857,263.729950 64.084076,269.588867 69.605446,275.117889 
	C80.434059,285.961548 93.592140,290.152039 108.728783,287.945587 
	C122.713287,285.907043 133.115540,274.132599 132.990936,259.977203 
	C132.936523,253.796082 131.780518,247.624664 131.106155,241.273651 
	C153.172836,239.210617 171.509064,246.608963 185.369644,264.176178 
	C196.454041,278.224731 209.488495,288.509308 228.318848,288.790741 
	C240.596252,288.974243 254.456650,285.313843 260.024689,271.724213 
	C263.429596,263.413971 262.980103,254.733734 260.202332,246.309433 
	C258.862427,242.245819 259.777405,241.027466 264.028320,240.932861 
	C284.888885,240.468567 301.400940,248.772156 314.102661,265.112976 
	C327.255798,282.034546 343.666046,291.241730 365.921295,288.100861 
	C379.589539,286.171844 391.001892,274.633698 390.975800,260.800812 
	C390.963715,254.412994 389.861115,248.027206 389.209412,241.182953 
	C406.328552,240.018005 422.932373,242.387253 436.410004,255.036209 
	C443.191132,261.400391 449.124969,268.657654 455.724426,275.227325 
	C466.575592,286.029602 479.758118,290.203888 494.889465,287.930969 
	C507.840363,285.985657 518.141418,275.438629 518.935425,262.342834 
	C519.347412,255.547501 518.091370,248.651031 517.549805,241.267532 
	C517.978088,241.110168 519.489075,240.555084 521.000000,240.000000 
	C521.000000,258.687561 521.000000,277.375122 520.613037,296.361511 
	C519.486938,297.838196 518.116272,299.010529 518.105896,300.194855 
	C517.995056,312.785706 514.278564,324.544891 510.054565,336.184174 
	C505.716919,348.136688 501.238098,360.037933 496.821045,371.961639 
z"/>
<path fill="#6FA2EC" opacity="1.000000" stroke="none" 
	d="
M521.000000,239.533890 
	C519.489075,240.555084 517.978088,241.110168 517.549805,241.267532 
	C518.091370,248.651031 519.347412,255.547501 518.935425,262.342834 
	C518.141418,275.438629 507.840363,285.985657 494.889465,287.930969 
	C479.758118,290.203888 466.575592,286.029602 455.724426,275.227325 
	C449.124969,268.657654 443.191132,261.400391 436.410004,255.036209 
	C422.932373,242.387253 406.328552,240.018005 389.209412,241.182953 
	C389.861115,248.027206 390.963715,254.412994 390.975800,260.800812 
	C391.001892,274.633698 379.589539,286.171844 365.921295,288.100861 
	C343.666046,291.241730 327.255798,282.034546 314.102661,265.112976 
	C301.400940,248.772156 284.888885,240.468567 264.028320,240.932861 
	C259.777405,241.027466 258.862427,242.245819 260.202332,246.309433 
	C262.980103,254.733734 263.429596,263.413971 260.024689,271.724213 
	C254.456650,285.313843 240.596252,288.974243 228.318848,288.790741 
	C209.488495,288.509308 196.454041,278.224731 185.369644,264.176178 
	C171.509064,246.608963 153.172836,239.210617 131.106155,241.273651 
	C131.780518,247.624664 132.936523,253.796082 132.990936,259.977203 
	C133.115540,274.132599 122.713287,285.907043 108.728783,287.945587 
	C93.592140,290.152039 80.434059,285.961548 69.605446,275.117889 
	C64.084076,269.588867 58.892857,263.729950 53.558807,258.014160 
	C42.410595,246.068146 28.292181,241.318741 12.345792,240.971497 
	C8.859248,240.895584 5.374075,240.756699 1.444135,240.823410 
	C1.000000,236.643097 1.000000,232.286194 1.320686,227.794617 
	C2.429648,225.158035 3.323539,222.683670 3.984214,220.148514 
	C5.359896,214.869720 3.026175,208.635803 8.428652,204.485718 
	C14.520301,203.814468 20.268803,202.962402 26.399544,202.069366 
	C32.764420,198.610809 39.450287,196.006561 44.564579,191.584641 
	C52.202663,184.980560 58.299255,176.610840 65.833504,169.865585 
	C78.492561,158.532166 93.956741,155.996521 110.337654,157.249939 
	C109.523582,162.380585 108.778481,167.076584 108.023880,172.245438 
	C106.710251,188.728775 116.709984,200.310089 130.724548,203.228317 
	C135.932312,204.312729 141.470383,203.948608 146.860001,203.995773 
	C162.451508,204.132217 173.881699,196.105164 183.459381,184.808075 
	C191.318604,175.537979 199.606445,166.822983 210.902161,160.978012 
	C220.171494,158.372635 229.032059,155.839554 238.735779,157.527710 
	C237.904922,160.731186 236.991745,163.408218 236.532272,166.160995 
	C233.637253,183.505661 239.659088,198.290024 257.797241,202.895218 
	C263.407776,204.319702 269.536652,203.939133 275.429993,203.963730 
	C287.598633,204.014542 297.637695,198.865265 306.036133,190.396790 
	C310.951843,185.440094 315.592102,180.204788 320.255981,175.004852 
	C332.066101,161.837357 347.060883,156.570984 364.401886,157.024139 
	C367.413879,157.102844 367.760712,158.473328 367.187622,161.290466 
	C366.136841,166.456024 365.221680,171.734177 365.095886,176.985626 
	C364.815399,188.699127 371.600769,198.505203 382.792542,201.915634 
	C387.350067,203.304398 392.556152,202.392487 397.340240,203.242020 
	C411.998779,205.844986 423.807373,200.496399 433.916595,190.507233 
	C440.540253,183.962189 446.469727,176.695190 453.273438,170.356140 
	C464.213593,160.163116 477.769684,156.823730 492.394470,157.028763 
	C495.422119,157.071213 495.695953,158.486984 495.178375,161.289078 
	C494.130554,166.961975 493.161194,172.741104 493.103180,178.485962 
	C492.982758,190.409439 502.125000,200.783447 514.296387,203.187607 
	C515.737976,209.145218 516.725159,214.930389 518.097717,220.622635 
	C518.483337,222.222031 520.001404,223.548401 521.000000,225.000000 
	C521.000000,229.689255 521.000000,234.378510 521.000000,239.533890 
z"/>
<path fill="#A8C9F4" opacity="1.000000" stroke="none" 
	d="
M26.017303,202.110336 
	C20.268803,202.962402 14.520301,203.814468 8.732824,204.228317 
	C12.426678,186.146118 18.306921,169.207138 25.697895,152.793640 
	C32.977360,136.627777 41.854893,121.315804 52.488861,107.167732 
	C60.357609,96.698669 68.329735,86.028816 77.836639,77.138977 
	C90.135773,65.638138 103.783249,55.521870 117.256798,45.347954 
	C136.765167,30.617119 159.298584,21.718597 182.243347,14.219925 
	C199.032211,8.733082 216.306259,4.565996 234.171387,3.907192 
	C235.423264,3.861027 236.648193,3.084184 237.885651,2.647114 
	C237.590439,2.098074 237.295227,1.549036 237.000000,0.999998 
	C239.041672,1.000000 241.083328,1.000000 243.036285,1.232902 
	C243.856766,1.965026 244.727325,2.643134 245.699020,2.853077 
	C245.985825,2.915045 246.558395,1.654488 247.000000,1.000000 
	C256.354218,1.000000 265.708466,1.000000 275.201233,1.358552 
	C277.013428,2.090998 278.687073,2.464893 280.360718,2.838789 
	C280.240448,2.225861 280.120209,1.612932 280.000000,1.000002 
	C281.714355,1.000000 283.428711,1.000000 285.087097,1.236606 
	C285.561096,2.247041 286.091064,3.020871 286.843384,3.881555 
	C287.065674,3.968409 287.543030,3.972972 287.543030,3.972972 
	C287.543030,3.972972 287.995056,3.819412 288.443054,3.892897 
	C300.283264,5.820729 311.791931,7.148965 323.042908,9.640890 
	C345.247772,14.558947 366.095764,23.259098 386.090271,34.016140 
	C404.700012,44.028206 421.698730,56.336292 437.131317,70.734665 
	C451.722870,84.348305 464.525970,99.434196 475.815979,116.009491 
	C487.849548,133.676422 497.287537,152.503601 504.632782,172.419647 
	C508.313293,182.399109 510.904175,192.780411 513.987854,202.979980 
	C502.125000,200.783447 492.982758,190.409439 493.103180,178.485962 
	C493.161194,172.741104 494.130554,166.961975 495.178375,161.289078 
	C495.695953,158.486984 495.422119,157.071213 492.394470,157.028763 
	C477.769684,156.823730 464.213593,160.163116 453.273438,170.356140 
	C446.469727,176.695190 440.540253,183.962189 433.916595,190.507233 
	C423.807373,200.496399 411.998779,205.844986 397.340240,203.242020 
	C392.556152,202.392487 387.350067,203.304398 382.792542,201.915634 
	C371.600769,198.505203 364.815399,188.699127 365.095886,176.985626 
	C365.221680,171.734177 366.136841,166.456024 367.187622,161.290466 
	C367.760712,158.473328 367.413879,157.102844 364.401886,157.024139 
	C347.060883,156.570984 332.066101,161.837357 320.255981,175.004852 
	C315.592102,180.204788 310.951843,185.440094 306.036133,190.396790 
	C297.637695,198.865265 287.598633,204.014542 275.429993,203.963730 
	C269.536652,203.939133 263.407776,204.319702 257.797241,202.895218 
	C239.659088,198.290024 233.637253,183.505661 236.532272,166.160995 
	C236.991745,163.408218 237.904922,160.731186 238.735779,157.527710 
	C229.032059,155.839554 220.171494,158.372635 211.102570,160.665161 
	C212.196960,158.896957 213.384003,157.271362 214.826370,155.917892 
	C244.174850,128.378067 279.767883,116.006447 319.538757,113.125916 
	C319.786469,115.037956 320.043030,116.943451 319.581177,118.655067 
	C316.462677,130.211441 322.735413,141.488876 333.870789,143.701279 
	C340.707184,145.059555 347.192322,143.381790 353.041656,139.881393 
	C364.918854,132.773743 366.962555,114.866043 356.205902,107.072891 
	C343.718872,98.026100 330.983307,88.998543 317.330109,81.948692 
	C282.817474,64.128044 245.687149,60.213570 207.414444,63.820526 
	C184.609436,65.969757 162.488297,70.846664 141.139389,79.122047 
	C108.103897,91.927444 78.437798,110.032440 54.991245,136.893768 
	C47.225395,145.790665 41.100040,156.314682 35.338123,166.711838 
	C29.328720,177.555588 26.946886,189.732712 26.017303,202.110336 
z"/>
<path fill="#100F0F" opacity="1.000000" stroke="none" 
	d="
M279.599976,1.000002 
	C280.120209,1.612932 280.240448,2.225861 280.360718,2.838789 
	C278.687073,2.464893 277.013428,2.090998 275.669891,1.358552 
	C277.066681,1.000000 278.133331,1.000000 279.599976,1.000002 
z"/>
<path fill="#100F0F" opacity="1.000000" stroke="none" 
	d="
M246.625000,1.000000 
	C246.558395,1.654488 245.985825,2.915045 245.699020,2.853077 
	C244.727325,2.643134 243.856766,1.965026 243.473785,1.232902 
	C244.750000,1.000000 245.500000,1.000000 246.625000,1.000000 
z"/>
<path fill="#C0D8F7" opacity="1.000000" stroke="none" 
	d="
M26.399546,202.069366 
	C26.946886,189.732712 29.328720,177.555588 35.338123,166.711838 
	C41.100040,156.314682 47.225395,145.790665 54.991245,136.893768 
	C78.437798,110.032440 108.103897,91.927444 141.139389,79.122047 
	C162.488297,70.846664 184.609436,65.969757 207.414444,63.820526 
	C245.687149,60.213570 282.817474,64.128044 317.330109,81.948692 
	C330.983307,88.998543 343.718872,98.026100 356.205902,107.072891 
	C366.962555,114.866043 364.918854,132.773743 353.041656,139.881393 
	C347.192322,143.381790 340.707184,145.059555 333.870789,143.701279 
	C322.735413,141.488876 316.462677,130.211441 319.581177,118.655067 
	C320.043030,116.943451 319.786469,115.037956 319.451904,112.738327 
	C316.180847,111.442741 313.363647,110.395767 310.452423,109.857834 
	C293.000916,106.633141 275.474121,106.264023 257.774048,107.751778 
	C225.351410,110.477013 194.706451,119.296799 165.392624,133.168335 
	C144.316696,143.141632 125.262459,156.095337 108.033371,171.772583 
	C108.778481,167.076584 109.523582,162.380585 110.337654,157.249939 
	C93.956741,155.996521 78.492561,158.532166 65.833504,169.865585 
	C58.299255,176.610840 52.202663,184.980560 44.564579,191.584641 
	C39.450287,196.006561 32.764420,198.610809 26.399546,202.069366 
z"/>
<path fill="#4E8CE9" opacity="1.000000" stroke="none" 
	d="
M108.023880,172.245438 
	C125.262459,156.095337 144.316696,143.141632 165.392624,133.168335 
	C194.706451,119.296799 225.351410,110.477013 257.774048,107.751778 
	C275.474121,106.264023 293.000916,106.633141 310.452423,109.857834 
	C313.363647,110.395767 316.180847,111.442741 319.128326,112.642075 
	C279.767883,116.006447 244.174850,128.378067 214.826370,155.917892 
	C213.384003,157.271362 212.196960,158.896957 210.690628,160.708710 
	C199.606445,166.822983 191.318604,175.537979 183.459381,184.808075 
	C173.881699,196.105164 162.451508,204.132217 146.860001,203.995773 
	C141.470383,203.948608 135.932312,204.312729 130.724548,203.228317 
	C116.709984,200.310089 106.710251,188.728775 108.023880,172.245438 
z"/>
<path fill="#100F0F" opacity="1.000000" stroke="none" 
	d="
M286.843384,3.881557 
	C286.934296,3.714602 287.247559,3.634499 287.777924,3.686903 
	C287.995056,3.819412 287.543030,3.972972 287.543030,3.972972 
	C287.543030,3.972972 287.065674,3.968409 286.843384,3.881557 
z"/>
</svg>