<svg version="1.1" id="Layer_1" xmlns="http://www.w3.org/2000/svg" xmlns:xlink="http://www.w3.org/1999/xlink" x="0px"
     y="0px"
     width="100%" viewBox="0 0 520 520" enable-background="new 0 0 520 520" xml:space="preserve">
<path fill="currentColor" opacity="1.000000" stroke="none"
      d="
M20.121801,435.000214
	C17.661625,435.000214 15.684067,435.000214 12.566601,435.000214
	C41.809246,304.057770 70.918839,173.711090 100.058342,43.230492
	C116.077133,43.230492 131.692154,43.230492 147.790680,43.230492
	C176.889999,173.523132 205.986038,303.801056 235.193359,434.577332
	C216.199951,434.577332 197.644577,434.577332 178.089264,434.577332
	C172.699356,407.232880 167.217010,379.419525 161.676102,351.309021
	C136.744263,351.309021 111.809731,351.309021 86.199104,351.309021
	C80.746635,378.944763 75.259972,406.753815 69.687019,435.000214
	C53.197723,435.000214 36.901073,435.000214 20.121801,435.000214
M97.965858,289.343048
	C97.379219,292.050934 96.792580,294.758820 96.147133,297.738159
	C114.472244,297.738159 132.549988,297.738159 151.115570,297.738159
	C142.024796,250.872131 133.000961,204.351151 123.977119,157.830154
	C123.738953,157.873398 123.500786,157.916641 123.262619,157.959900
	C114.841042,201.468002 106.419464,244.976089 97.965858,289.343048
z"/>
    <path fill="currentColor" opacity="1.000000" stroke="none"
          d="
M318.999847,226.000183
	C326.125580,226.000183 332.751343,226.000183 339.682800,226.000183
	C339.682800,235.737854 339.682800,244.983551 339.682800,254.733795
	C320.048187,254.733795 300.466431,254.733795 280.444214,254.733795
	C280.444214,275.592468 280.444214,295.955994 280.444214,316.816406
	C297.351624,316.816406 314.267944,316.816406 331.589355,316.816406
	C331.589355,326.667511 331.589355,336.033142 331.589355,345.895386
	C314.563263,345.895386 297.645447,345.895386 280.247498,345.895386
	C280.247498,375.626556 280.247498,404.873077 280.247498,434.558533
	C270.072540,434.558533 260.371887,434.558533 250.333420,434.558533
	C250.333420,365.308350 250.333420,296.073303 250.333420,226.000183
	C273.017975,226.000183 295.758942,226.000183 318.999847,226.000183
z"/>
    <path fill="currentColor" opacity="1.000000" stroke="none"
          d="
M451.246613,404.994354 
	C470.200775,404.998688 488.677521,404.998688 507.575409,404.998688 
	C507.575409,414.969208 507.575409,424.666412 507.575409,434.683960 
	C477.936890,434.683960 448.367554,434.683960 418.398743,434.683960 
	C418.398743,365.337433 418.398743,296.000641 418.398743,226.331665 
	C428.033417,226.331665 437.612518,226.331665 448.000000,226.331665 
	C448.000000,228.391708 448.000000,230.476120 448.000000,232.560532 
	C448.000000,288.193329 447.981323,343.826141 448.075745,399.458771 
	C448.079132,401.466064 446.320404,404.911499 451.246613,404.994354 
z"/>
    <path fill="currentColor" opacity="1.000000" stroke="none"
          d="
M384.799683,434.999847 
	C375.840424,435.000732 367.358765,435.000732 358.456238,435.000732 
	C358.456238,365.391327 358.456238,296.071899 358.456238,226.375443 
	C368.400177,226.375443 378.300812,226.375443 388.999908,226.375443 
	C388.999908,228.071686 388.999939,229.823074 388.999939,231.574463 
	C388.999939,297.520813 389.007355,363.467133 388.971771,429.413483 
	C388.970398,431.954315 390.211761,435.598877 384.799683,434.999847 
z"/>
    <path fill="#33409F" opacity="1.000000" stroke="none"
          d="
M399.119507,190.110703 
	C390.250092,208.417908 361.859039,210.969528 350.058960,192.168335 
	C349.362030,191.057892 348.739838,189.900513 348.297211,188.263016 
	C350.074738,186.977371 351.637848,186.193710 353.134064,185.443588 
	C358.049011,196.245422 362.588928,185.176041 367.149231,185.795135 
	C371.831451,196.560364 376.488007,185.162430 381.130066,185.792831 
	C385.945953,196.828674 390.672913,184.721329 394.829010,186.521301 
	C396.259186,187.717773 397.689331,188.914230 399.119507,190.110703 
z"/>
    <path fill="#3871C6" opacity="1.000000" stroke="none"
          d="
M399.425293,189.889404 
	C397.689331,188.914230 396.259186,187.717773 394.829010,186.521301 
	C390.672913,184.721329 385.945953,196.828674 381.130066,185.792831 
	C376.488007,185.162430 371.831451,196.560364 367.149231,185.795135 
	C362.588928,185.176041 358.049011,196.245422 353.134064,185.443588 
	C351.637848,186.193710 350.074738,186.977371 348.205811,187.927643 
	C347.279419,184.325226 346.658783,180.556229 346.449097,176.427536 
	C353.261139,181.493286 353.877960,181.450607 358.435394,174.963791 
	C362.918304,175.820312 367.647308,186.185486 372.219635,174.365799 
	C374.191223,175.966965 375.499573,177.696960 377.185303,178.227219 
	C379.228973,178.870071 383.081116,179.317795 383.568146,178.431183 
	C386.232758,173.580826 388.511841,174.851913 391.467712,177.925217 
	C393.991760,180.549591 396.425018,181.257156 398.360168,177.001221 
	C398.813568,176.003983 400.650970,175.636047 401.851624,174.978592 
	C401.614410,178.491592 401.482269,182.016403 401.088837,185.511810 
	C400.929230,186.930206 400.200714,188.284592 399.425293,189.889404 
z"/>
    <path fill="#A6C7F2" opacity="1.000000" stroke="none"
          d="
M347.144928,169.021606 
	C349.726624,157.520218 358.100220,151.599060 368.711121,148.986282 
	C381.612701,145.809464 396.718781,155.274094 400.021179,165.750702 
	C400.501801,167.275497 401.272430,168.708878 401.459808,170.567047 
	C399.612854,170.617325 397.238251,170.639130 396.969452,169.897644 
	C394.518280,163.135208 391.959198,167.263916 388.825500,169.282120 
	C387.297363,170.266281 383.115417,170.256561 382.895142,169.666397 
	C380.390045,162.954849 377.940247,167.135757 375.089752,169.242859 
	C373.828613,170.175125 371.542114,170.869659 370.295624,170.334335 
	C369.153473,169.843811 368.784668,167.552612 368.372498,165.884186 
	C372.386963,164.076233 376.104126,162.438919 379.912537,161.157959 
	C381.377380,162.030472 382.750977,162.546677 384.124512,163.062881 
	C383.915100,161.955765 384.101166,160.422180 383.436584,159.805847 
	C374.302338,151.334579 354.421570,155.838516 350.726624,166.199387 
	C349.363861,167.252380 348.254395,168.136993 347.144928,169.021606 
z"/>
    <path fill="#6FA2EC" opacity="1.000000" stroke="none"
          d="
M346.963165,169.374710 
	C348.254395,168.136993 349.363861,167.252380 351.090149,166.193695 
	C353.118774,166.983643 354.530548,167.947678 356.043945,169.251282 
	C358.456879,172.525940 359.888367,169.951553 361.743408,168.853729 
	C363.715454,167.686676 365.953339,166.968826 368.075134,166.054840 
	C368.784668,167.552612 369.153473,169.843811 370.295624,170.334335 
	C371.542114,170.869659 373.828613,170.175125 375.089752,169.242859 
	C377.940247,167.135757 380.390045,162.954849 382.895142,169.666397 
	C383.115417,170.256561 387.297363,170.266281 388.825500,169.282120 
	C391.959198,167.263916 394.518280,163.135208 396.969452,169.897644 
	C397.238251,170.639130 399.612854,170.617325 401.408508,170.933212 
	C401.864471,172.001587 401.922668,173.086319 401.916260,174.574814 
	C400.650970,175.636047 398.813568,176.003983 398.360168,177.001221 
	C396.425018,181.257156 393.991760,180.549591 391.467712,177.925217 
	C388.511841,174.851913 386.232758,173.580826 383.568146,178.431183 
	C383.081116,179.317795 379.228973,178.870071 377.185303,178.227219 
	C375.499573,177.696960 374.191223,175.966965 372.219635,174.365799 
	C367.647308,186.185486 362.918304,175.820312 358.435394,174.963791 
	C353.877960,181.450607 353.261139,181.493286 346.526581,175.984833 
	C346.389191,173.843826 346.585297,171.785812 346.963165,169.374710 
z"/>

    <path fill="#BFD7F7" opacity="1.000000" stroke="none"
          d="
M355.942322,168.911713 
	C354.530548,167.947678 353.118774,166.983643 351.343445,166.025299 
	C354.421570,155.838516 374.302338,151.334579 383.436584,159.805847 
	C384.101166,160.422180 383.915100,161.955765 384.124512,163.062881 
	C382.750977,162.546677 381.377380,162.030472 379.609375,160.926575 
	C370.036377,159.338821 362.233948,162.074631 355.942322,168.911713 
z"/>
    <path fill="#518FE9" opacity="1.000000" stroke="none"
          d="
M356.043945,169.251282 
	C362.233948,162.074631 370.036377,159.338821 379.518097,160.570251 
	C376.104126,162.438919 372.386963,164.076233 368.372498,165.884186 
	C365.953339,166.968826 363.715454,167.686676 361.743408,168.853729 
	C359.888367,169.951553 358.456879,172.525940 356.043945,169.251282 
z"/>
</svg>